PathFileType	4	(X/Y/Z)	/home/abdul/Desktop/myosuite/custom_workspace/IK/output/S1_12_3.trc
DataRate	CameraRate	NumFrames	NumMarkers	Units	OrigDataRate	OrigDataStartFrame	OrigNumFrames
200.0	200.0	44	3	mm	200.0	1222	2443
Frame#	Time	V_Shoulder			V_Elbow			V_Wrist		
		X1	Y1	Z1	X2	Y2	Z2	X3	Y3	Z3

1222	6.105	-175.37789902841268	492.74229119678284	363.53314936961095	-276.7287372810484	382.91059564331795	22.70964293159518	-135.17809758901757	154.44914839474842	64.78348543634146
1223	6.11	-175.3299668868723	492.95786715641344	363.7714960795665	-276.77741564933604	383.0134351077371	23.00023468908753	-135.25062970247302	154.52710956209998	65.00642247588783
1224	6.115	-175.28005016747457	493.18037340213624	364.0128024503358	-276.8301931380257	383.11354215061124	23.298927241946213	-135.32708313582913	154.60325541211625	65.24213718913144
1225	6.12	-175.22811560309572	493.41000595081346	364.2569127143443	-276.8871034770615	383.21097526401843	23.605619591567752	-135.40754776951127	154.6776600214527	65.49088249628741
1226	6.125	-175.17413191786136	493.64695759775464	364.50366907444635	-276.9481734857473	383.30581035117103	23.92020106466395	-135.49211240363226	154.75041167027837	65.75290660982502
1227	6.13	-175.11806988688042	493.8914176095372	364.75291203343096	-277.0134231085773	383.39814042953356	24.242551773074357	-135.58086432782702	154.82161282832794	66.02845285632907
1228	6.135	-175.0599023905065	494.143571420074	365.00448072565223	-277.0828654754076	383.4880752428572	24.572543110163977	-135.67388888181722	154.89138008103376	66.3177595203971
1229	6.14	-174.99960446297814	494.40360033053184	365.2582132499512	-277.156506985506	383.5757407835342	24.91003828237242	-135.7712690089831	154.9598439957683	66.62105971134977
1230	6.145	-174.93715333531136	494.67168121368917	365.51394700304746	-277.2343474148921	383.66127872719994	25.254892874298257	-135.8730848053265	155.0271489285275	66.93858125336666
1231	6.15	-174.87252847233412	494.94798622331274	365.7715190125777	-277.3163800462596	383.7448457820252	25.606955445522075	-135.97941306630204	155.09345277167932	67.27054659948693
1232	6.155	-174.80571160377556	495.23268250911474	366.0307662689675	-277.4025918206594	383.8266129556447	25.966068157195213	-136.09032683407088	155.15892664369062	67.6171727697336
1233	6.16	-174.73668674934197	495.5259319378381	366.29152605533085	-277.49296351000856	383.90676474315376	26.332067426248837	-136.2058949477958	155.22375452202607	67.97867131343315
1234	6.165	-174.6654402377338	495.82789082099936	366.5536362745995	-277.5874699093858	383.98549824006943	26.704784604911637	-136.3261815996414	155.28813282068472	68.35524829561166
1235	6.17	-174.59196071957854	496.1387096498013	366.8169357730985	-277.68608004797306	384.06302218459575	27.084046683065075	-136.45124589917313	155.35226991409786	68.74710430715304
1236	6.175	-174.51623917427864	496.4585328377065	367.081264659794	-277.7887574174094	384.13955593394815	27.46967701081381	-136.5811414488596	155.41638560936005	69.15443449820927
1237	6.18	-174.43826891079345	496.7874984711457	367.34646462045566	-277.8954602162354	384.2153283798807	27.8614960385069	-136.71591593337533	155.48071056899664	69.57742863415459
1238	6.185	-174.35804556239887	497.12573806880977	367.6123792259911	-278.0061416090277	384.29057680891606	28.259322071313722	-136.85561072537507	155.54548568668727	70.01627117317922
1239	6.19	-174.2755670754898	497.473376349956	367.8788542342256	-278.12074999875074	384.36554571309773	28.66297203533844	-137.00026051036505	155.61096141856495	70.4711413644241
1240	6.195	-174.19083369251214	497.83053101213414	368.1457378844211	-278.23922931078954	384.4404855573755	29.07226225214879	-137.14989293323296	155.6773970728914	70.94221336536606
1241	6.2	-174.10384792913567	498.19731251871326	368.41288118384523	-278.36151928707164	384.51565150998135	29.48700921850068	-137.3045282689149	155.745060061074	71.42965637697749
1242	6.205	-174.01461454579703	498.57382389657187	368.6801381857243	-278.4875557886421	384.5913021423668	29.90703038795967	-137.46417911957488	155.8142251131323	71.93363479500363
1243	6.21	-173.92314051376775	498.96016054428236	368.94736625793547	-278.6172711050186	384.667698105442	30.332144951055042	-137.62885014055345	155.88517346084888	72.45430837552728
1244	6.215	-173.82943497591896	499.3564100511012	369.21442634181636	-278.7505942686269	384.7451007889875	30.762174610552552	-137.7985377972029	155.95819199194545	72.99183241282681
1245	6.22	-173.73350920237712	499.76265202704855	369.48118320049707	-278.887451372603	384.8237709712022	31.19694434839841	-137.97323015457258	156.03357237870978	73.54635792737788
1246	6.225	-173.63537654128308	500.17895794433633	369.74750565618245	-279.02776589023995	384.9039674653948	31.63628318087056	-138.15290670173707	156.11161018456994	74.1180318617057
1247	6.23	-173.53505236488544	500.60539099037754	370.01326681584266	-279.17145899436605	384.9859457708375	32.08002489847384	-138.33753821237323	156.1926039521589	74.7069972816628
1248	6.235	-173.43255401121579	501.0420059325858	370.27834428479565	-279.31844987495293	385.0699567347609	32.52800878713375	-138.5270866429932	156.27685427644616	75.31339358058884
1249	6.24	-173.32790072161092	501.48884899514445	370.54262036769677	-279.4686560532831	385.1562452324018	32.98008032727962	-138.72150507002746	156.36466286652637	75.93735668370479
1250	6.245	-173.2211135743594	501.94595774790287	370.805982256479	-279.6219936910405	385.24504887189244	33.436091867461535	-138.920737666729	156.45633159965274	76.5790192500054
1251	6.25	-173.1122154147672	502.41336100752943	371.0683222048226	-279.7783778927387	385.33659673063585	33.89590326921764	-139.1247197206354	156.5521615710873	77.2385108688413
1252	6.255	-173.00123078194466	502.89107875102604	371.3295376887589	-279.9377229999579	385.43110812961424	34.359382519997794	-139.33337769208447	156.65245214330656	77.91595824832797
1253	6.26	-172.88818583263208	503.3791220416838	371.589531553055	-280.09994287593184	385.5287914518569	34.82640631105682	-139.54662931403007	156.75749999805777	78.61148539268211
1254	6.265	-172.77310826238798	503.8774929675332	371.8482121430534	-280.2649511791051	385.62984301103194	35.29686057735572	-139.764383733152	156.86759819470268	79.32521376556937
1255	6.27	-172.65602722447207	504.3861845923216	372.1054934216804	-280.4326616243664	385.73444597583614	35.770640996650506	-139.98654169199642	156.98303523821903	80.05726243654993
1256	6.275	-172.53697324676173	504.9051809190207	372.361295071372	-280.602988230764	385.84276935553635	36.247653445106685	-140.21299575162607	157.10409416015085	80.807748207733
1257	6.28	-172.41597814704485	505.4344568658489	372.6155425807028	-280.7758455546117	385.9549670516678	36.72781440695148	-140.44363055400012	157.23105161571218	81.57678571779628
1258	6.285	-172.29307494703482	505.97397825476713	372.86816731554217	-280.9511489070064	386.0711769805206	37.21105133586475	-140.6783231230499	157.36417700015465	82.36448752059363
1259	6.29	-172.16829778545392	506.52370181238456	373.11910657460015	-281.1288145548982	386.1915202706519	37.697302966013226	-140.91694320316276	157.503731587407	83.17096413566412
1260	6.295	-172.04168183053176	507.083575183193	373.36830362926565	-281.3087599049758	386.31610053924624	38.186519570849306	-141.15935363354183	157.64996769388767	83.99632406806776
1261	6.3	-171.9132631922624	507.6535369550199	373.6157077476781	-281.49090366976327	386.4450032507141	38.67866316802469	-141.40541075666957	157.8031278702792	84.84067379510805
1262	6.305	-171.7830788347601	508.2335166965798	373.86127420301517	-281.6751660154523	386.57829516047343	39.17370766900932	-141.6549648588734	157.96344412393586	85.70411771765933
1263	6.31	-171.65116648904873	508.823435006976	374.1049642660211	-281.8614686911314	386.7160238464036	39.671638972256396	-141.90786064077372	158.13113717447453	86.58675807399696
1264	6.315	-171.5175645666111	509.42320357699265	374.3467451818383	-282.04973513921266	386.8582173299925	40.17245499901314	-142.16393771518634	158.30641574497625	87.48869481423083
1265	6.32	-171.38231207401768	510.0327252619963	374.58659013124924	-282.23989058698953	387.00488378873104	40.67616567114308	-142.42303112986022	158.48947589109684	88.41002543366615
